HIERARCHY
ROOT hips
{
  OFFSET 0 10.6860622 2.3727825e-15
  CHANNELS 6 Xposition Yposition Zposition Yrotation Xrotation Zrotation
  JOINT leftUpperLeg
  {
    OFFSET 0.6642549969 -0.9402397400000004 0
    CHANNELS 3 Yrotation Xrotation Zrotation
    JOINT leftLowerLeg
    {
      OFFSET 0 -3.997221335632195 0
      CHANNELS 3 Yrotation Xrotation Zrotation
      JOINT leftFoot
      {
        OFFSET -0.13777839790000004 -4.6145792000000005 -0.22186036399999998
        CHANNELS 3 Yrotation Xrotation Zrotation
        JOINT leftToes
        {
          OFFSET -0.03777410834999995 -0.9130806927000008 0.85230013
          CHANNELS 3 Yrotation Xrotation Zrotation
          End Site
          {
            OFFSET -0.03777410834999995 -0.9130806927000008 0.85230013
          }
        }
      }
    }
  }
  JOINT rightUpperLeg
  {
    OFFSET -0.6642778626 -0.9402397400000004 0
    CHANNELS 3 Yrotation Xrotation Zrotation
    JOINT rightLowerLeg
    {
      OFFSET 0 -3.997221452859387 0
      CHANNELS 3 Yrotation Xrotation Zrotation
      JOINT rightFoot
      {
        OFFSET 0.1377926176 -4.6145792000000005 -0.22185782299999995
        CHANNELS 3 Yrotation Xrotation Zrotation
        JOINT rightToes
        {
          OFFSET 0.037780746850000047 -0.9130806927000008 0.85230167
          CHANNELS 3 Yrotation Xrotation Zrotation
          End Site
          {
            OFFSET 0.037780746850000047 -0.9130806927000008 0.85230167
          }
        }
      }
    }
  }
  JOINT spine
  {
    OFFSET 0 0.13988381660000015 0
    CHANNELS 3 Yrotation Xrotation Zrotation
    JOINT chest
    {
      OFFSET 0 0.6191039003973773 0
      CHANNELS 3 Yrotation Xrotation Zrotation
      JOINT upperChest
      {
        OFFSET 0 0.9855186130586943 0
        CHANNELS 3 Yrotation Xrotation Zrotation
        JOINT leftShoulder
        {
          OFFSET 0.1807663869 1.5087829790000005 0
          CHANNELS 3 Yrotation Xrotation Zrotation
          JOINT leftUpperArm
          {
            OFFSET 0.5985063006419806 0 0
            CHANNELS 3 Yrotation Xrotation Zrotation
            JOINT leftLowerArm
            {
              OFFSET 2.2993332369501065 0 0
              CHANNELS 3 Yrotation Xrotation Zrotation
              JOINT leftHand
              {
                OFFSET 2.395047042602395 0 0
                CHANNELS 3 Yrotation Xrotation Zrotation
                JOINT leftIndexProximal
                {
                  OFFSET 0.5766295810000004 0.04556643899499946 0.17265095988184
                  CHANNELS 3 Yrotation Xrotation Zrotation
                  JOINT leftIndexIntermediate
                  {
                    OFFSET 0.2957229000000008 -0.019352197700001517 -0.007932640616999987
                    CHANNELS 3 Yrotation Xrotation Zrotation
                    JOINT leftIndexDistal
                    {
                      OFFSET 0.19008243099999922 -0.012484908149998475 -0.002786250786000012
                      CHANNELS 3 Yrotation Xrotation Zrotation
                      End Site
                      {
                        OFFSET 0.19008243099999922 -0.012484908149998475 -0.002786250786000012
                      }
                    }
                  }
                }
                JOINT leftMiddleProximal
                {
                  OFFSET 0.5834975091000001 0.0524350405149987 0.02204081888183999
                  CHANNELS 3 Yrotation Xrotation Zrotation
                  JOINT leftMiddleIntermediate
                  {
                    OFFSET 0.33880573540000003 -0.019871473270000717 -0.00000971183179999946
                    CHANNELS 3 Yrotation Xrotation Zrotation
                    JOINT leftMiddleDistal
                    {
                      OFFSET 0.20676022730000088 -0.012221336379999448 0.0001471936708000235
                      CHANNELS 3 Yrotation Xrotation Zrotation
                      End Site
                      {
                        OFFSET 0.20676022730000088 -0.012221336379999448 0.0001471936708000235
                      }
                    }
                  }
                }
                JOINT leftLittleProximal
                {
                  OFFSET 0.5344154683999995 -0.012880921405001189 -0.24414037221816004
                  CHANNELS 3 Yrotation Xrotation Zrotation
                  JOINT leftLittleIntermediate
                  {
                    OFFSET 0.21758961730000093 -0.011650919939999227 0.011893592810000034
                    CHANNELS 3 Yrotation Xrotation Zrotation
                    JOINT leftLittleDistal
                    {
                      OFFSET 0.1475273964999999 -0.008152365682999818 0.006001092492999946
                      CHANNELS 3 Yrotation Xrotation Zrotation
                      End Site
                      {
                        OFFSET 0.1475273964999999 -0.008152365682999818 0.006001092492999946
                      }
                    }
                  }
                }
                JOINT leftRingProximal
                {
                  OFFSET 0.5799399463000003 0.026911854694997794 -0.12150566991816003
                  CHANNELS 3 Yrotation Xrotation Zrotation
                  JOINT leftRingIntermediate
                  {
                    OFFSET 0.26167887460000006 -0.013480186499999602 0.010996293000000053
                    CHANNELS 3 Yrotation Xrotation Zrotation
                    JOINT leftRingDistal
                    {
                      OFFSET 0.17667108799999987 -0.008990287899999228 0.0055541023999999065
                      CHANNELS 3 Yrotation Xrotation Zrotation
                      End Site
                      {
                        OFFSET 0.17667108799999987 -0.008990287899999228 0.0055541023999999065
                      }
                    }
                  }
                }
                JOINT leftThumbProximal
                {
                  OFFSET 0.11018806699999972 -0.09448718900500053 0.17047963138184
                  CHANNELS 3 Yrotation Xrotation Zrotation
                  JOINT leftThumbIntermediate
                  {
                    OFFSET 0.31062601459999983 -0.08126270900000132 0.15443142000000007
                    CHANNELS 3 Yrotation Xrotation Zrotation
                    JOINT leftThumbDistal
                    {
                      OFFSET 0.21627175790000086 -0.08833193599999878 0.018771167799999988
                      CHANNELS 3 Yrotation Xrotation Zrotation
                      End Site
                      {
                        OFFSET 0.21627175790000086 -0.08833193599999878 0.018771167799999988
                      }
                    }
                  }
                }
              }
            }
          }
        }
        JOINT neck
        {
          OFFSET 0 1.5463305265074576 0
          CHANNELS 3 Yrotation Xrotation Zrotation
          JOINT head
          {
            OFFSET 0 0.8456443600000344 0
            CHANNELS 3 Yrotation Xrotation Zrotation
            JOINT leftEye
            {
              OFFSET 0.30408573140000006 0.5104519199999995 0.1276382305
              CHANNELS 3 Yrotation Xrotation Zrotation
              End Site
              {
                OFFSET 0.30408573140000006 0.5104519199999995 0.1276382305
              }
            }
            JOINT rightEye
            {
              OFFSET -0.30409491089999996 0.5104519199999995 0.1276379445
              CHANNELS 3 Yrotation Xrotation Zrotation
              End Site
              {
                OFFSET -0.30409491089999996 0.5104519199999995 0.1276379445
              }
            }
            JOINT jaw
            {
              OFFSET -3.155239131000001e-7 -0.11984121820000082 0.60178107
              CHANNELS 3 Yrotation Xrotation Zrotation
              End Site
              {
                OFFSET -3.155239131000001e-7 -0.11984121820000082 0.60178107
              }
            }
          }
        }
        JOINT rightShoulder
        {
          OFFSET -0.1807303465 1.5087829790000005 0
          CHANNELS 3 Yrotation Xrotation Zrotation
          JOINT rightUpperArm
          {
            OFFSET -0.5985063796536958 0 0
            CHANNELS 3 Yrotation Xrotation Zrotation
            JOINT rightLowerArm
            {
              OFFSET -2.2993322059002854 0 0
              CHANNELS 3 Yrotation Xrotation Zrotation
              JOINT rightHand
              {
                OFFSET -2.395045314457259 0 0
                CHANNELS 3 Yrotation Xrotation Zrotation
                JOINT rightIndexProximal
                {
                  OFFSET -0.5764487688300002 0.0441371204405987 0.17361932004999997
                  CHANNELS 3 Yrotation Xrotation Zrotation
                  JOINT rightIndexIntermediate
                  {
                    OFFSET -0.29573011380000047 -0.01934826376999843 -0.007698921482999974
                    CHANNELS 3 Yrotation Xrotation Zrotation
                    JOINT rightIndexDistal
                    {
                      OFFSET -0.19008373999999884 -0.012503266380000655 -0.0026365778999999897
                      CHANNELS 3 Yrotation Xrotation Zrotation
                      End Site
                      {
                        OFFSET -0.19008373999999884 -0.012503266380000655 -0.0026365778999999897
                      }
                    }
                  }
                }
                JOINT rightMiddleProximal
                {
                  OFFSET -0.5834852037300005 0.05211639405060153 0.02307162440000001
                  CHANNELS 3 Yrotation Xrotation Zrotation
                  JOINT rightMiddleIntermediate
                  {
                    OFFSET -0.33880114510000003 -0.019952774050000954 0.0002455003561999819
                    CHANNELS 3 Yrotation Xrotation Zrotation
                    JOINT rightMiddleDistal
                    {
                      OFFSET -0.20675694929999955 -0.012273788999999091 0.00030209124000002766
                      CHANNELS 3 Yrotation Xrotation Zrotation
                      End Site
                      {
                        OFFSET -0.20675694929999955 -0.012273788999999091 0.00030209124000002766
                      }
                    }
                  }
                }
                JOINT rightLittleProximal
                {
                  OFFSET -0.5346811737299992 -0.011214256288399227 -0.24363941305000003
                  CHANNELS 3 Yrotation Xrotation Zrotation
                  JOINT rightLittleIntermediate
                  {
                    OFFSET -0.21757715980000092 -0.011771559690000988 0.01201554387
                    CHANNELS 3 Yrotation Xrotation Zrotation
                    JOINT rightLittleDistal
                    {
                      OFFSET -0.1475201849000004 -0.00822055339600003 0.006082065407000015
                      CHANNELS 3 Yrotation Xrotation Zrotation
                      End Site
                      {
                        OFFSET -0.1475201849000004 -0.00822055339600003 0.006082065407000015
                      }
                    }
                  }
                }
                JOINT rightRingProximal
                {
                  OFFSET -0.5800810755299999 0.027657985680600072 -0.12066365025000003
                  CHANNELS 3 Yrotation Xrotation Zrotation
                  JOINT rightRingIntermediate
                  {
                    OFFSET -0.26166445029999974 -0.013623118409999302 0.011164098990000045
                    CHANNELS 3 Yrotation Xrotation Zrotation
                    JOINT rightRingDistal
                    {
                      OFFSET -0.17666387530000027 -0.009072900100000503 0.005668185599999959
                      CHANNELS 3 Yrotation Xrotation Zrotation
                      End Site
                      {
                        OFFSET -0.17666387530000027 -0.009072900100000503 0.005668185599999959
                      }
                    }
                  }
                }
                JOINT rightThumbProximal
                {
                  OFFSET -0.10997596379000074 -0.09577489355940072 0.16989765924999997
                  CHANNELS 3 Yrotation Xrotation Zrotation
                  JOINT rightThumbIntermediate
                  {
                    OFFSET -0.31036620999999986 -0.08229339117999834 0.15440884469999996
                    CHANNELS 3 Yrotation Xrotation Zrotation
                    JOINT rightThumbDistal
                    {
                      OFFSET -0.21631306399999906 -0.08825326400000111 0.018656797720000014
                      CHANNELS 3 Yrotation Xrotation Zrotation
                      End Site
                      {
                        OFFSET -0.21631306399999906 -0.08825326400000111 0.018656797720000014
                      }
                    }
                  }
                }
              }
            }
          }
        }
      }
    }
  }
}
MOTION
Frames: 8
Frame Time: 0.03333333333333333
0 11.682712981546562 0 0 0 0 0 0 -5.826343164929014 -0.3712483961610101 -3.6333298826370974 5.838118207697276 0 0 0 0 0 0 0 0 5.826343164929014 0.3712483961610101 -3.6333298826370974 -5.838118207697276 0 0 0 0 0 0 0 -4.610651315171937 0 0 3.0831277533083026 0 0 0 0 0 1.5275236235667615 0 0 0 0 0 0 0 0 0 0 0 0 0 0 0 0 0 0 0 0 0 0 0 0 0 0 0 0 0 0 0 0 0 0 0 0 0 0 0 0 0 0 0 0 0 0 0 0 0 0 0 0 0 0 0 0 1.5275236235667615 0 0 0 0 0 0 0 0 0 0 0 0 0 0 1.5275236235667615 0 0 0 0 0 0 0 0 0 0 0 0 0 0 0 0 0 0 0 0 0 0 0 0 0 0 0 0 0 0 0 0 0 0 0 0 0 0 0 0 0 0 0 0 0 0 0 0 0 0 0 0 0 0 0
0 -6.851726711088603 -8.589850895210764 0 -63.00217470139075 0 -27.084398729512888 -24.325665244598152 18.1703720949573 14.341629373848074 67.61087763673162 15.456915142975088 -0.002947413799433333 14.998732416347696 -1.0003767634766352 0 0 0 24.045271884644738 -25.51390522054012 -16.894473680386263 -14.341634802948343 67.61087763673162 -15.456918383607702 0 20.996786438572162 0 0 0 0 0 44.38565737675503 0 0 19.08011714863068 0 0 0 0 0 1.5275236235667615 0 11.285293135421734 -18.771601230698476 -76.00610105577597 -44.8205289175696 19.91871032269051 -5.320030360411385 -1.0016881344609925 29.999869867503975 -0.0022963461450229605 0 0 0 0 0 0 0 0 0 0 0 0 0 0 0 0 0 0 0 0 0 0 0 0 0 0 0 0 0 0 0 0 0 0 0 0 0 0 0 0 0 0 0 0 0 0 1.5275236235667615 0 -0.17310598951509085 0.27451899958149795 -0.0004143933215799273 0 0 0 0 0 0 0 0 0 0 1.5275236235667615 0 36.336004963565664 -14.916364745982982 64.99672193174668 61.99620378894563 -0.0006017000517091367 -5.001703925137516 0 0 65.99600916926859 0 0 0 0 0 0 0 0 0 0 0 0 0 0 0 0 0 0 0 0 0 0 0 0 0 0 0 0 0 0 0 0 0 0 0 0 0 0 0 0 0 0 0 0 0
0 -6.851726711088603 -8.589850895210764 0 -63.00217470139075 0 -27.084398729512888 -24.325665244598152 18.1703720949573 15.773707609059183 67.45247803005654 16.8167793910552 -0.002947413799433333 14.998732416347696 -1.0003767634766352 0 0 0 24.045271884644738 -25.51390522054012 -16.894473680386263 -15.774581318584914 67.45238896780768 -16.817660347288758 0 20.996786438572162 0 0 0 0 0 44.38565737675503 0 0 19.08011714863068 0 0 0 0 0 1.5275236235667615 0 11.285293135421734 -18.771601230698476 -76.00610105577597 -44.8205289175696 19.918713955086222 -5.320029456224226 -1.0016882033990968 29.99987381091044 -0.0022963461450229605 0 0 0 0 0 0 0 0 0 0 0 0 0 0 0 0 0 0 0 0 0 0 0 0 0 0 0 0 0 0 0 0 0 0 0 0 0 0 0 0 0 0 0 0 0 0 1.5275236235667615 0 -0.17310598951509085 0.27451899958149795 -0.0004143933215799273 0 0 0 0 0 0 0 0 0 0 1.5275236235667615 0 36.336004963565664 -14.916364745982982 64.99672193174668 63.06538195108861 -0.0005867569806008219 -5.001882024812074 0 0 65.99600916926859 0 0 0 0 0 0 0 0 0 0 0 0 0 0 0 0 0 0 0 0 0 0 0 0 0 0 0 0 0 0 0 0 0 0 0 0 0 0 0 0 0 0 0 0 0
0 -6.851726711088603 -8.589850895210764 0 -63.00217470139075 0 -27.084397061096766 -24.32566149676685 18.170370314487393 17.18622426900207 67.28118620612965 18.15701897335487 -0.002947413799433333 14.998732416347696 -1.0003767634766352 0 0 0 24.045271884644738 -25.51390522054012 -16.894473680386263 -17.187963618565202 67.28100935460876 -18.15877672344147 0 20.996786438572162 0 0 0 0 0 44.38565737675503 0 0 19.08011714863068 0 0 0 0 0 1.5275236235667615 0 11.285287829604083 -18.771603034174706 -76.00608443398235 -44.820526357136046 19.91871032269051 -5.320030360411385 -1.0016881344609925 29.999869867503975 -0.0022963461450229605 0 0 0 0 0 0 0 0 0 0 0 0 0 0 0 0 0 0 0 0 0 0 0 0 0 0 0 0 0 0 0 0 0 0 0 0 0 0 0 0 0 0 0 0 0 0 1.5275236235667615 0 -0.17310598951509085 0.27451899958149795 -0.0004143933215799273 0 0 0 0 0 0 0 0 0 0 1.5275236235667615 0 36.336004963565664 -14.916362978889227 64.99672193174668 64.13566101686007 -0.0005688253890692711 -5.002057870676083 0 0 65.9959939117559 0 0 0 0 0 0 0 0 0 0 0 0 0 0 0 0 0 0 0 0 0 0 0 0 0 0 0 0 0 0 0 0 0 0 0 0 0 0 0 0 0 0 0 0 0
0 -6.851726711088603 -8.589850895210764 0 -63.00217470139075 0 -27.084397061096766 -24.32566711851385 18.170370314487393 18.57803061727207 67.09726609472317 19.476484190714235 -0.002947413799433333 14.998732416347696 -1.0003767634766352 0 0 0 24.045271884644738 -25.51390522054012 -16.894473680386263 -18.580600647669705 67.09698528432867 -19.479083569818375 0 20.996786438572162 0 0 0 0 0 44.38565737675503 0 0 19.08011714863068 0 0 0 0 0 1.5275236235667615 0 11.285293135421734 -18.771601230698476 -76.00610105577597 -44.8205289175696 19.91871032269051 -5.320030360411385 -1.0016881344609925 29.999869867503975 -0.0022963461450229605 0 0 0 0 0 0 0 0 0 0 0 0 0 0 0 0 0 0 0 0 0 0 0 0 0 0 0 0 0 0 0 0 0 0 0 0 0 0 0 0 0 0 0 0 0 0 1.5275236235667615 0 -0.17310598951509085 0.27451899958149795 -0.0004143933215799273 0 0 0 0 0 0 0 0 0 0 1.5275236235667615 0 36.336004963565664 -14.916364745982982 64.99672193174668 65.20688142138859 -0.0005469090341598119 -5.00223384403403 0 0 65.99600916926859 0 0 0 0 0 0 0 0 0 0 0 0 0 0 0 0 0 0 0 0 0 0 0 0 0 0 0 0 0 0 0 0 0 0 0 0 0 0 0 0 0 0 0 0 0
0 -6.851726711088603 -8.589850895210764 0 -63.00217470139075 0 -27.084398729512888 -24.325665244598152 18.1703720949573 19.948126649876553 66.90104506594002 20.774177667194685 -0.002947413799433333 14.998732416347696 -1.0003767634766352 0 0 0 24.045273612518482 -25.51390522054012 -16.894475490787475 -19.951487828000904 66.90061853140281 -20.777578213013054 0 20.996786438572162 0 0 0 0 0 44.38566693417579 0 0 19.08011714863068 0 0 0 0 0 1.5275236235667615 0 11.285293135421734 -18.771601230698476 -76.00610105577597 -44.8205289175696 19.918713955086222 -5.320029456224226 -1.0016881344609925 29.999869867503975 -0.0022963461450229605 0 0 0 0 0 0 0 0 0 0 0 0 0 0 0 0 0 0 0 0 0 0 0 0 0 0 0 0 0 0 0 0 0 0 0 0 0 0 0 0 0 0 0 0 0 0 1.5275236235667615 0 -0.17310598951509085 0.27451899958149795 -0.0004143933215799273 0 0 0 0 0 0 0 0 0 0 1.5275236235667615 0 36.33600705764077 -14.916366513076749 64.99671883646307 66.27887024855879 -0.0005210079158724855 -5.002410115169794 0 0 65.99600916926859 0 0 0 0 0 0 0 0 0 0 0 0 0 0 0 0 0 0 0 0 0 0 0 0 0 0 0 0 0 0 0 0 0 0 0 0 0 0 0 0 0 0 0 0 0
0 -6.851726711088603 -8.589850895210764 0 -63.00217470139075 0 -27.084397061096766 -24.325663370682484 18.170370314487393 21.295612938784785 66.69282348550954 22.049195709193654 -0.002947413799433333 14.998730648575144 -1.0003767634766352 0 0 0 24.04527015677095 -25.5139071125996 -16.894473680386263 -21.29974084253647 66.69224519014078 -22.053376788109038 0 20.996786438572162 0 0 0 0 0 44.38565737675503 0 0 19.08011714863068 0 0 0 0 0 1.5275236235667615 0 11.285290482512933 -18.771601230698476 -76.0061001808001 -44.820526357136046 19.91870850649269 -5.320029456224226 -1.0016881344609925 29.999869867503975 -0.0022963461450229605 0 0 0 0 0 0 0 0 0 0 0 0 0 0 0 0 0 0 0 0 0 0 0 0 0 0 0 0 0 0 0 0 0 0 0 0 0 0 0 0 0 0 0 0 0 0 1.5275236235667615 0 -0.17310598951509085 0.27451899958149795 -0.0004143933215799273 0 0 0 0 0 0 0 0 0 0 1.5275236235667615 0 36.33600211657931 -14.916364745982982 64.99672353323477 67.35140780115333 -0.0004931144158963009 -5.002586088517416 0 0 65.99600916926859 0 0 0 0 0 0 0 0 0 0 0 0 0 0 0 0 0 0 0 0 0 0 0 0 0 0 0 0 0 0 0 0 0 0 0 0 0 0 0 0 0 0 0 0 0
0 -6.851726711088603 -8.589850895210764 0 -63.00217470139075 0 -27.084397061096766 -24.325663370682484 18.170368534017445 22.61971292831961 66.47292553543949 23.30076679584981 -0.002947413799433333 14.998730648575144 -1.0003767634766352 0 0 0 24.045271884644738 -25.51390522054012 -16.894473680386263 -22.624574129084326 66.47218124205803 -23.305692345129444 0 20.996786438572162 0 0 0 0 0 44.38565737675503 0 0 19.08011714863068 0 0 0 0 0 1.5275236235667615 0 11.285290482512933 -18.771601230698476 -76.0061001808001 -44.820526357136046 19.91870850649269 -5.320029456224226 -1.0016881344609925 29.999869867503975 -0.0022963461450229605 0 0 0 0 0 0 0 0 0 0 0 0 0 0 0 0 0 0 0 0 0 0 0 0 0 0 0 0 0 0 0 0 0 0 0 0 0 0 0 0 0 0 0 0 0 0 1.5275236235667615 0 -0.17310598951509085 0.27451899958149795 -0.0004143933215799273 0 0 0 0 0 0 0 0 0 0 1.5275236235667615 0 36.33600705764077 -14.916366513076749 64.99671883646307 68.42433461943172 -0.00046123620465252975 -5.002761083881965 0 0 65.99600916926859 0 0 0 0 0 0 0 0 0 0 0 0 0 0 0 0 0 0 0 0 0 0 0 0 0 0 0 0 0 0 0 0 0 0 0 0 0 0 0 0 0 0 0 0 0
